<svg width="163" height="157" viewBox="0 0 163 157" fill="none" xmlns="http://www.w3.org/2000/svg">
<path d="M162.279 37.05L153.129 87.225C152.375 91.3698 150.19 95.1186 146.955 97.8184C143.721 100.518 139.642 101.998 135.429 102H48.4294L51.7294 120H132.354C135.914 120 139.395 121.056 142.355 123.034C145.315 125.011 147.622 127.823 148.984 131.112C150.347 134.401 150.703 138.02 150.009 141.512C149.314 145.003 147.6 148.211 145.082 150.728C142.565 153.245 139.358 154.96 135.866 155.654C132.374 156.349 128.755 155.992 125.466 154.63C122.177 153.267 119.366 150.96 117.388 148C115.41 145.04 114.354 141.56 114.354 138C114.355 135.954 114.71 133.924 115.404 132H71.3044C71.9985 133.924 72.3537 135.954 72.3544 138C72.3598 140.904 71.6624 143.767 70.3218 146.343C68.9812 148.919 67.0371 151.133 64.6555 152.795C62.2739 154.457 59.5255 155.518 56.645 155.887C53.7644 156.257 50.8372 155.924 48.1132 154.917C45.3892 153.91 42.9492 152.259 41.0017 150.104C39.0542 147.95 37.6568 145.356 36.9289 142.545C36.201 139.733 36.1642 136.788 36.8217 133.959C37.4791 131.13 38.8112 128.502 40.7044 126.3L19.9294 12H6.35437C4.76307 12 3.23695 11.3679 2.11173 10.2426C0.986511 9.11742 0.35437 7.5913 0.35437 6C0.35437 4.4087 0.986511 2.88258 2.11173 1.75736C3.23695 0.632141 4.76307 0 6.35437 0H19.9294C22.7302 0.00612674 25.4406 0.991753 27.5911 2.78613C29.7416 4.5805 31.1967 7.07059 31.7044 9.825L35.3794 30H156.354C157.23 30.0018 158.095 30.1978 158.886 30.5739C159.677 30.95 160.375 31.4968 160.929 32.175C161.51 32.8319 161.933 33.6122 162.167 34.4568C162.4 35.3015 162.439 36.1882 162.279 37.05Z" fill="#8DD7CF"/>
</svg>
