<svg width="163" height="157" viewBox="0 0 163 157" fill="none" xmlns="http://www.w3.org/2000/svg">
<path d="M161.925 37.05L152.775 87.225C152.02 91.3698 149.835 95.1186 146.601 97.8184C143.367 100.518 139.288 101.998 135.075 102H48.075L51.375 120H132C135.56 120 139.04 121.056 142 123.034C144.96 125.011 147.267 127.823 148.63 131.112C149.992 134.401 150.349 138.02 149.654 141.512C148.96 145.003 147.245 148.211 144.728 150.728C142.211 153.245 139.003 154.96 135.512 155.654C132.02 156.349 128.401 155.992 125.112 154.63C121.823 153.267 119.011 150.96 117.034 148C115.056 145.04 114 141.56 114 138C114.001 135.954 114.356 133.924 115.05 132H70.95C71.6441 133.924 71.9993 135.954 72 138C72.0054 140.904 71.308 143.767 69.9674 146.343C68.6268 148.919 66.6827 151.133 64.3011 152.795C61.9195 154.457 59.1712 155.518 56.2906 155.887C53.41 156.257 50.4828 155.924 47.7588 154.917C45.0348 153.91 42.5949 152.259 40.6473 150.104C38.6998 147.95 37.3024 145.356 36.5746 142.545C35.8467 139.733 35.8099 136.788 36.4673 133.959C37.1247 131.13 38.4569 128.502 40.35 126.3L19.575 12H6C4.4087 12 2.88258 11.3679 1.75736 10.2426C0.632141 9.11742 0 7.5913 0 6C0 4.4087 0.632141 2.88258 1.75736 1.75736C2.88258 0.632141 4.4087 0 6 0H19.575C22.3758 0.00612674 25.0862 0.991753 27.2367 2.78613C29.3872 4.5805 30.8424 7.07059 31.35 9.825L35.025 30H156C156.876 30.0018 157.741 30.1978 158.532 30.5739C159.323 30.95 160.021 31.4968 160.575 32.175C161.155 32.8319 161.578 33.6122 161.812 34.4568C162.046 35.3015 162.085 36.1882 161.925 37.05Z" fill="white"/>
</svg>
