<svg width="162" height="144" viewBox="0 0 162 144" fill="none" xmlns="http://www.w3.org/2000/svg">
<path d="M117 5.15389e-07C110.014 5.15389e-07 103.124 1.62653 96.8754 4.75078C90.6269 7.87503 85.1916 12.4112 81 18C75.3332 10.4442 67.4326 4.863 58.4175 2.04689C49.4024 -0.769216 39.7298 -0.677428 30.7697 2.30925C21.8097 5.29593 14.0165 11.0261 8.4941 18.688C2.97168 26.35 0 35.5553 0 45C0 98.925 74.925 141.45 78.075 143.25C78.9676 143.752 79.9762 144.01 81 144C82.0247 144.017 83.0351 143.758 83.925 143.25C97.7227 135.184 110.664 125.735 122.55 115.05C148.725 91.5 162 67.95 162 45C162 33.0653 157.259 21.6193 148.82 13.1802C140.381 4.74106 128.935 5.15389e-07 117 5.15389e-07V5.15389e-07Z" fill="white"/>
</svg>
