<svg width="163" height="144" viewBox="0 0 163 144" fill="none" xmlns="http://www.w3.org/2000/svg">
<path d="M117.769 5.15389e-07C110.783 5.15389e-07 103.893 1.62653 97.6441 4.75078C91.3956 7.87503 85.9603 12.4112 81.7687 18C76.1018 10.4442 68.2013 4.863 59.1862 2.04689C50.1711 -0.769216 40.4985 -0.677428 31.5384 2.30925C22.5784 5.29593 14.7852 11.0261 9.26278 18.688C3.74036 26.35 0.768677 35.5553 0.768677 45C0.768677 98.925 75.6937 141.45 78.8437 143.25C79.7362 143.752 80.7448 144.01 81.7687 144C82.7934 144.017 83.8038 143.758 84.6937 143.25C98.4914 135.184 111.433 125.735 123.319 115.05C149.494 91.5 162.769 67.95 162.769 45C162.769 33.0653 158.028 21.6193 149.588 13.1802C141.149 4.74106 129.703 5.15389e-07 117.769 5.15389e-07V5.15389e-07Z" fill="#3F31DC"/>
</svg>
