<svg width="98" height="88" viewBox="0 0 98 88" fill="none" xmlns="http://www.w3.org/2000/svg">
<path d="M74.5943 0.149979C70.5631 0.149979 62.1551 0.731631 57.2177 4.43466C50.9328 9.14828 48.7674 17.8837 48.7674 17.8837C45.0552 6.74637 37.5747 3.26756 37.5747 3.26756C37.5747 3.26756 31.9703 -0.769612 19.852 0.980758C19.852 0.980758 8.23312 2.34972 3.8444 11.7287C3.8444 11.7287 0.642865 17.8837 0.642883 29.4514C0.642912 46.8987 23.8539 61.1236 23.8539 61.1236C32.5564 67.7502 48.7674 87.6849 48.7674 87.6849C55.9835 77.9316 62.261 71.2996 69.1194 65.134C84.2232 51.545 95.8021 42.5164 97.1536 30.0878C98.653 16.2987 91.3758 8.36227 91.3758 8.36227C86.5062 3.49264 81.481 0.149979 74.5943 0.149979Z" fill="white"/>
</svg>
