<svg width="192" height="192" viewBox="0 0 192 192" fill="none" xmlns="http://www.w3.org/2000/svg">
<g clip-path="url(#clip0_14_6)">
<path d="M179.4 73.05C178.649 70.6874 177.202 68.6068 175.248 67.081C173.294 65.5553 170.924 64.6556 168.45 64.5L123.9 61.425L107.4 19.8C106.499 17.508 104.931 15.5393 102.898 14.1486C100.866 12.758 98.4627 12.0095 96 12V12C93.5373 12.0095 91.1342 12.758 89.1017 14.1486C87.0692 15.5393 85.501 17.508 84.6 19.8L67.8 61.65L23.55 64.5C21.0788 64.6657 18.7142 65.5692 16.762 67.0934C14.8098 68.6177 13.36 70.6927 12.6 73.05C11.8195 75.4434 11.774 78.0158 12.4691 80.4353C13.1642 82.8549 14.5682 85.0108 16.5 86.625L50.55 115.425L40.425 155.25C39.7245 157.944 39.8505 160.787 40.7868 163.408C41.7231 166.03 43.4263 168.309 45.675 169.95C47.8577 171.517 50.4583 172.396 53.1438 172.476C55.8293 172.557 58.4777 171.834 60.75 170.4L95.925 148.125H96.075L133.95 172.05C135.893 173.313 138.158 173.99 140.475 174C142.367 173.985 144.23 173.537 145.922 172.689C147.613 171.842 149.088 170.617 150.232 169.111C151.376 167.604 152.16 165.855 152.523 163.999C152.886 162.142 152.818 160.227 152.325 158.4L141.6 114.825L175.5 86.625C177.432 85.0108 178.836 82.8549 179.531 80.4353C180.226 78.0158 180.18 75.4434 179.4 73.05Z" fill="#4B5C6B"/>
</g>
<defs>
<clipPath id="clip0_14_6">
<rect width="192" height="192" fill="white"/>
</clipPath>
</defs>
</svg>
