<svg width="144" height="156" viewBox="0 0 144 156" fill="none" xmlns="http://www.w3.org/2000/svg">
<path d="M138 24H108V18C107.98 13.2322 106.077 8.66527 102.706 5.29389C99.3347 1.9225 94.7678 0.0197428 90 0H54C49.2322 0.0197428 44.6653 1.9225 41.2939 5.29389C37.9225 8.66527 36.0197 13.2322 36 18V24H6C4.4087 24 2.88258 24.6321 1.75736 25.7574C0.632142 26.8826 0 28.4087 0 30C0 31.5913 0.632142 33.1174 1.75736 34.2426C2.88258 35.3679 4.4087 36 6 36H12V144C12 147.183 13.2643 150.235 15.5147 152.485C17.7652 154.736 20.8174 156 24 156H120C123.183 156 126.235 154.736 128.485 152.485C130.736 150.235 132 147.183 132 144V36H138C139.591 36 141.117 35.3679 142.243 34.2426C143.368 33.1174 144 31.5913 144 30C144 28.4087 143.368 26.8826 142.243 25.7574C141.117 24.6321 139.591 24 138 24ZM60 114C60 115.591 59.3679 117.117 58.2426 118.243C57.1174 119.368 55.5913 120 54 120C52.4087 120 50.8826 119.368 49.7574 118.243C48.6321 117.117 48 115.591 48 114V66C48 64.4087 48.6321 62.8826 49.7574 61.7574C50.8826 60.6321 52.4087 60 54 60C55.5913 60 57.1174 60.6321 58.2426 61.7574C59.3679 62.8826 60 64.4087 60 66V114ZM96 114C96 115.591 95.3679 117.117 94.2426 118.243C93.1174 119.368 91.5913 120 90 120C88.4087 120 86.8826 119.368 85.7574 118.243C84.6321 117.117 84 115.591 84 114V66C84 64.4087 84.6321 62.8826 85.7574 61.7574C86.8826 60.6321 88.4087 60 90 60C91.5913 60 93.1174 60.6321 94.2426 61.7574C95.3679 62.8826 96 64.4087 96 66V114ZM96 24H48V18C48 16.4087 48.6321 14.8826 49.7574 13.7574C50.8826 12.6321 52.4087 12 54 12H90C91.5913 12 93.1174 12.6321 94.2426 13.7574C95.3679 14.8826 96 16.4087 96 18V24Z" fill="#4B5C6B"/>
</svg>
